<svg 
	version="1.1"
	id="Layer_1"
	xmlns="http://www.w3.org/2000/svg"
	xmlns:xlink="http://www.w3.org/1999/xlink"
	x="0px"
	y="0px"
	width="100%"
	viewBox="0 0 1024 944"
	enable-background="new 0 0 1024 944"
	xml:space="preserve"
>
	<circle cx="488" cy="482" r="431" fill="#006400"/>
	<path fill="#3cb371" opacity="1.000000" stroke="none"
		d="
	M492.996948,50.757847 
		C519.738708,50.832886 545.571960,54.464031 571.291321,59.383171 
		C619.909363,68.681946 665.314514,86.333794 707.680847,111.770752 
		C757.886658,141.914474 800.563354,180.607132 835.029297,227.862061 
		C872.240845,278.881470 897.269653,335.537537 909.409485,397.680756 
		C918.163391,442.491547 919.431213,487.532928 914.589600,532.932922 
		C908.624146,588.871887 891.719360,641.264343 864.916565,690.503235 
		C849.576477,718.684204 830.633118,744.357605 809.453308,768.531372 
		C771.321106,812.054077 725.672668,845.458801 674.019775,870.895264 
		C644.940979,885.215027 614.538940,896.262268 582.820862,903.011963 
		C562.883484,907.254761 542.813110,911.147217 522.343445,912.455872 
		C510.387604,913.220154 498.451965,914.137085 486.467590,914.095825 
		C455.742371,913.990234 425.448059,910.231018 395.393555,903.895630 
		C322.012726,888.427246 257.468353,855.239136 200.992477,806.373840 
		C147.695053,760.258606 109.142975,703.581604 83.329514,638.094971 
		C69.683952,603.477295 60.970005,567.652588 57.030235,530.705383 
		C50.683613,471.186584 55.505398,412.591492 73.440865,355.380554 
		C92.861229,293.433075 124.191658,238.148300 168.220093,190.293243 
		C207.990891,147.065903 254.707672,113.224609 308.172333,88.967812 
		C346.594971,71.535545 386.748108,59.834778 428.731934,54.483608 
		C449.933990,51.781235 471.154297,50.490261 492.996948,50.757847 
	M589.207764,166.400223 
		C579.033081,161.188400 570.416016,153.756012 561.572998,146.702118 
		C543.346008,132.162933 522.897522,127.356323 500.133118,131.805695 
		C481.956757,135.358337 465.990509,143.798965 450.836060,154.049026 
		C449.303802,155.085388 448.024445,156.764587 445.571320,156.520508 
		C447.573425,144.165695 457.506500,138.693024 465.747345,131.759399 
		C441.328522,135.843948 427.165924,150.914597 420.957489,174.454666 
		C419.291473,173.444733 418.570129,173.066605 417.911743,172.599716 
		C400.049194,159.933029 376.708649,161.571381 361.013702,176.607422 
		C355.351624,182.031769 349.792755,187.571335 345.352020,194.067535 
		C341.704468,199.403473 337.036896,203.467834 331.578430,206.876099 
		C321.595734,213.109299 314.640686,221.635452 311.714386,233.350067 
		C310.058411,239.979309 308.424438,246.593521 307.231598,253.321350 
		C305.994415,260.299622 302.898010,266.030457 296.975403,270.381317 
		C284.615326,279.461212 280.974640,291.733612 286.493469,306.066376 
		C287.975616,309.915619 287.455383,312.495819 285.052612,315.577759 
		C277.183411,325.671265 277.492035,338.889984 285.665009,348.699097 
		C287.226685,350.573456 288.469940,352.419006 288.196136,354.952057 
		C286.933655,366.632629 292.399109,375.514557 300.119141,383.411102 
		C302.051727,385.387939 303.194672,387.483765 303.616852,390.324738 
		C304.658356,397.332550 306.732727,403.980988 312.287964,408.967804 
		C313.729889,410.262177 314.608673,411.884735 313.627869,413.872864 
		C307.955963,425.369659 309.301270,437.041962 312.297272,448.935913 
		C316.866028,467.073792 322.126007,484.858276 332.098267,500.967041 
		C337.275208,509.329590 344.450409,514.152161 354.086365,514.380981 
		C359.305573,514.504822 360.995148,516.944031 362.071503,521.271118 
		C364.243988,530.004517 367.114746,538.503113 370.685852,546.795166 
		C376.238434,559.687988 384.474792,570.696899 393.798431,581.001831 
		C404.984802,593.365479 416.993683,604.895813 428.963470,616.497864 
		C443.351288,630.443604 460.302521,637.598755 480.024811,638.474304 
		C501.394470,639.422974 521.527161,636.063293 538.153259,620.905579 
		C550.843323,609.336365 563.338196,597.572021 575.088867,585.052795 
		C592.124023,566.903381 605.462036,546.564209 610.351257,521.709167 
		C611.460876,516.068420 613.691650,513.823792 619.470398,513.756409 
		C627.845703,513.658691 634.055847,509.521667 638.835815,502.432129 
		C651.322388,483.912079 656.687927,462.817444 661.684326,441.550293 
		C664.135559,431.116821 663.390808,421.025482 657.727966,411.654449 
		C656.371216,409.409302 656.752258,407.676880 658.468994,405.848724 
		C664.391357,399.542053 667.260071,391.728546 668.683105,383.432190 
		C669.413452,379.173950 671.022461,376.753693 675.375183,375.414093 
		C681.905090,373.404480 687.052490,369.378693 689.516296,362.185638 
		C688.266541,362.185638 687.457275,362.157837 686.650513,362.190735 
		C684.072510,362.295929 681.272522,362.284485 680.223999,359.510681 
		C679.156738,356.687439 682.225769,356.029907 683.761780,354.823181 
		C687.728821,351.706604 691.367065,348.494904 691.874817,342.764252 
		C688.608887,343.841858 685.485779,345.976288 682.662659,343.342468 
		C679.685608,340.565033 680.558594,336.852386 681.645569,333.483765 
		C682.664001,330.327789 683.911377,327.220947 685.336121,324.224762 
		C695.956970,301.889343 693.219299,280.239807 682.051147,259.034149 
		C681.185486,257.390472 680.455322,255.322266 678.088745,254.988235 
		C676.802551,256.268341 677.304321,257.859985 677.128357,259.285522 
		C676.793274,262.000275 677.574341,265.661438 673.862610,266.232971 
		C670.132141,266.807373 669.774902,262.990784 668.640564,260.553558 
		C664.652527,251.984467 663.698547,242.600281 661.670166,233.524475 
		C655.569519,206.228043 639.933411,187.277603 613.660339,177.156143 
		C605.589050,174.046768 597.784912,170.243744 589.207764,166.400223 
	M589.933899,598.933777 
		C589.669617,597.396667 590.381165,595.514343 588.398254,594.539307 
		C586.292786,594.690369 585.339417,596.437134 584.102234,597.697449 
		C572.199646,609.822632 560.212158,621.855225 547.574707,633.228271 
		C527.124634,651.632324 502.441620,655.735535 476.265686,653.874268 
		C453.901428,652.283997 434.605255,643.631653 418.408844,627.684875 
		C407.845123,617.283997 397.243042,606.926147 386.868713,596.334717 
		C385.576050,595.014893 384.532654,593.281067 383.193329,592.854065 
		C383.193329,604.633789 383.021149,616.279175 383.283051,627.914856 
		C383.379822,632.214294 382.042969,634.735352 377.951965,636.236023 
		C372.234802,638.333252 367.361237,641.877808 363.349182,646.455811 
		C353.361420,657.852539 343.704407,669.549377 333.456848,680.705261 
		C324.147766,690.839417 316.397949,701.979919 302.274261,707.697083 
		C262.623932,723.747131 223.663254,741.502502 184.452866,758.636292 
		C178.122208,761.402649 171.905792,764.430359 164.319809,767.947815 
		C269.073273,875.571960 394.138000,925.248108 543.052612,906.907837 
		C647.839172,894.002258 735.043762,845.227417 807.684998,767.488342 
		C800.263489,764.089783 793.861877,761.031921 787.361023,758.201965 
		C746.595642,740.456116 705.811523,722.753174 665.023254,705.059814 
		C660.230469,702.980713 655.942871,700.361694 652.472778,696.285278 
		C641.999390,683.981628 631.380554,671.800964 620.746399,659.635254 
		C612.323303,649.999146 604.531921,639.605225 591.976990,634.724243 
		C589.961670,633.940796 589.515869,632.389282 589.556396,630.318665 
		C589.755005,620.158508 589.820740,609.995728 589.933899,598.933777 
	z"/>
</svg>